<svg xmlns="http://www.w3.org/2000/svg" width="230" height="69.028" viewBox="0 0 230 69.028">
  <g id="Grupo_40445" data-name="Grupo 40445" transform="translate(-152.821 -144.136)">
    <path id="Caminho_27" data-name="Caminho 27" d="M163.245,169.784c0-8.066,5.16-14.388,13.589-14.388,7.777,0,11.191,4.72,11.191,9.3,0,4.433-3.344,8.21-9.81,8.21a10.507,10.507,0,0,1-5.814-1.6,2.048,2.048,0,0,1-1.018-2.617A1.92,1.92,0,0,1,174,167.458a8.937,8.937,0,0,0,4.215,1.234c2.834,0,5.013-1.234,5.013-4.14,0-3.053-2.252-5.015-6.32-5.015-5.742,0-8.939,4.65-8.939,10.173,0,5.742,3.488,10.536,9.808,10.536a11.79,11.79,0,0,0,7.632-2.689,2.144,2.144,0,0,1,3.267.293c.654,1.018.219,2.252-.869,3.123-1.891,1.6-5.162,3.414-10.466,3.414C168.477,184.386,163.245,177.7,163.245,169.784Z" transform="translate(10.496 11.338)" fill="#4db747"/>
    <path id="Caminho_28" data-name="Caminho 28" d="M191.456,159.683c-5.158,0-8.574,3.924-8.574,10.027,0,6.978,4.289,10.245,8.72,10.245a11.365,11.365,0,0,0,7.267-2.469,2.672,2.672,0,0,1,1.523-.654,2.094,2.094,0,0,1,2.035,2.105,2.3,2.3,0,0,1-.8,1.746c-2.615,2.105-5.158,3.558-10.462,3.558-7.2,0-13.153-5.013-13.153-14.458,0-7.777,4.939-14.388,13.589-14.388,5.957,0,10.39,3.414,10.39,8.79a7.4,7.4,0,0,1-2.105,5.523,3.132,3.132,0,0,1-2.184,1.018,2.161,2.161,0,0,1-2.18-2.035,2.391,2.391,0,0,1,.873-1.742,4.052,4.052,0,0,0,1.092-2.689C197.489,161.427,195.019,159.683,191.456,159.683Z" transform="translate(25.368 11.338)" fill="#4db747"/>
    <path id="Caminho_29" data-name="Caminho 29" d="M199.106,152.583a3.063,3.063,0,0,1-3.2,3.053,2.967,2.967,0,0,1-2.98-3.053,2.924,2.924,0,0,1,2.98-3.053A3.019,3.019,0,0,1,199.106,152.583Zm-5.523,31.535V163.482a2.17,2.17,0,0,1,2.324-2.18,2.094,2.094,0,0,1,2.181,2.18v20.125c0,1.672.508,2.473,1.307,2.473a3.222,3.222,0,0,0,1.961-1.018c2.035-1.816,4.361.8,2.326,2.98a6.048,6.048,0,0,1-4.724,2.105C195.544,190.148,193.583,188.26,193.583,184.117Z" transform="translate(40.384 5.431)" fill="#4db747"/>
    <path id="Caminho_30" data-name="Caminho 30" d="M213.1,159.683c-5.158,0-8.574,3.924-8.574,10.027,0,6.978,4.289,10.245,8.72,10.245a11.361,11.361,0,0,0,7.267-2.469,2.672,2.672,0,0,1,1.525-.654,2.092,2.092,0,0,1,2.033,2.105,2.3,2.3,0,0,1-.8,1.746c-2.615,2.105-5.158,3.558-10.462,3.558-7.195,0-13.153-5.013-13.153-14.458,0-7.777,4.941-14.388,13.589-14.388,5.957,0,10.39,3.414,10.39,8.79a7.4,7.4,0,0,1-2.105,5.523,3.132,3.132,0,0,1-2.182,1.018,2.159,2.159,0,0,1-2.18-2.035,2.384,2.384,0,0,1,.873-1.742,4.06,4.06,0,0,0,1.09-2.689C219.135,161.427,216.665,159.683,213.1,159.683Z" transform="translate(47.163 11.338)" fill="#4db747"/>
    <path id="Caminho_31" data-name="Caminho 31" d="M214.936,189.549V151.835c0-6.248,2.252-7.7,6.613-7.7h.289a2.18,2.18,0,0,1,0,4.357h-.289c-1.381,0-2.109.656-2.109,3.127v37.419c0,1.672.438,2.473,1.311,2.473a2.875,2.875,0,0,0,1.887-1.018c2.109-1.816,4.433.8,2.4,2.98a6.1,6.1,0,0,1-4.8,2.105C216.9,195.58,214.936,193.691,214.936,189.549Z" transform="translate(62.545)" fill="#4790b7"/>
    <path id="Caminho_32" data-name="Caminho 32" d="M235.476,155.4c8.064,0,14.313,5.013,14.313,14.458,0,9.519-6.25,14.388-14.313,14.388-7.921,0-14.171-4.869-14.171-14.388C221.305,160.409,227.555,155.4,235.476,155.4Zm0,4.14c-5.306,0-9.447,3.779-9.447,10.318s4.14,10.247,9.447,10.247c5.379,0,9.591-3.707,9.591-10.247S240.855,159.536,235.476,159.536Z" transform="translate(68.958 11.338)" fill="#4790b7"/>
    <path id="Caminho_33" data-name="Caminho 33" d="M251.838,155.4c8.064,0,14.313,5.013,14.313,14.458,0,9.519-6.25,14.388-14.313,14.388-7.921,0-14.171-4.869-14.171-14.388C237.667,160.409,243.917,155.4,251.838,155.4Zm0,4.14c-5.306,0-9.447,3.779-9.447,10.318s4.14,10.247,9.447,10.247c5.379,0,9.591-3.707,9.591-10.247S257.216,159.536,251.838,159.536Z" transform="translate(85.434 11.338)" fill="#4790b7"/>
    <path id="Caminho_34" data-name="Caminho 34" d="M259.586,160.771a11.41,11.41,0,0,1,9.882-5.375c6.466,0,10.388,5.3,10.388,12.423,0,9.083-5.23,16.567-13.659,16.567a7.533,7.533,0,0,1-6.611-3.267v18.6a2.137,2.137,0,0,1-2.254,2.105,2.1,2.1,0,0,1-2.254-2.105V157.576a2.112,2.112,0,0,1,2.254-2.18,2.152,2.152,0,0,1,2.254,2.18Zm15.4,7.2c0-5.088-2.468-8.285-6.392-8.285-5.013,0-8.865,5.3-9.009,11.407v1.162c.215,4.361,2.322,7.849,6.537,7.849C271.934,180.1,274.987,173.924,274.987,167.967Z" transform="translate(102.965 11.338)" fill="#4790b7"/>
    <path id="Caminho_35" data-name="Caminho 35" d="M152.821,157.576a2.112,2.112,0,0,1,2.254-2.18,2.152,2.152,0,0,1,2.254,2.18v5.668c1.887-4.943,5.013-7.847,8.79-7.847,3.851,0,5.16,1.961,5.16,3.633a2.182,2.182,0,0,1-2.035,2.4c-1.309,0-2.107-1.6-3.851-1.6-5.015,0-7.919,9.009-8.064,13.952v8.285A2.172,2.172,0,0,1,155,184.242a2.092,2.092,0,0,1-2.18-2.177Z" transform="translate(0 11.338)" fill="#4db747"/>
  </g>
</svg>
